<?xml version="1.0" encoding="UTF-8" standalone="no"?>
<!-- Created with Inkscape (http://www.inkscape.org/) -->

<svg
   width="1080"
   height="1080"
   viewBox="0 0 1080 1080"
   version="1.1"
   id="svg5"
   inkscape:version="1.1.2 (0a00cf5339, 2022-02-04)"
   sodipodi:docname="userSelect.svg"
   xmlns:inkscape="http://www.inkscape.org/namespaces/inkscape"
   xmlns:sodipodi="http://sodipodi.sourceforge.net/DTD/sodipodi-0.dtd"
   xmlns="http://www.w3.org/2000/svg"
   xmlns:svg="http://www.w3.org/2000/svg">
  <sodipodi:namedview
     id="namedview7"
     pagecolor="#ffffff"
     bordercolor="#666666"
     borderopacity="1.0"
     inkscape:pageshadow="2"
     inkscape:pageopacity="0.0"
     inkscape:pagecheckerboard="0"
     inkscape:document-units="px"
     showgrid="false"
     inkscape:zoom="0.32932844"
     inkscape:cx="660.43492"
     inkscape:cy="520.75673"
     inkscape:window-width="1360"
     inkscape:window-height="678"
     inkscape:window-x="0"
     inkscape:window-y="28"
     inkscape:window-maximized="1"
     inkscape:current-layer="g22732" />
  <defs
     id="defs2" />
  <g
     inkscape:label="Capa 1"
     inkscape:groupmode="layer"
     id="layer1">
    <g
       id="g22732"
       transform="matrix(2.7,0,0,2.7,-820.24242,-850.34608)">
      <circle
         style="fill:#949dd0;fill-opacity:1;stroke-width:1.30452"
         id="path3839"
         cx="503.79349"
         cy="514.94299"
         r="200"
         inkscape:export-filename="/home/igna/path888.png"
         inkscape:export-xdpi="96"
         inkscape:export-ydpi="96" />
      <path
         style="fill:#ffffff;stroke:none;stroke-width:1px;stroke-linecap:butt;stroke-linejoin:miter;stroke-opacity:0"
         d="m 375.4601,650.56859 2.07874,-58.74644 c 0,0 -3.04254,-52.527 25.97741,-64.38708 29.01995,-11.86008 72.59245,-20.55716 72.59245,-20.55716 l 3.12579,-11.40716 c 0,0 -11.58768,-16.90834 -14.35818,-24.54518 -1.37185,-3.78148 -4.77762,-7.10061 -6.81554,-42.69984 -2.09006,-36.51016 24.48907,-47.33809 36.46426,-48.58858 11.97519,-1.25049 30.33931,-3.31406 44.14982,12.83658 13.81052,16.15065 9.95771,54.84978 9.95771,54.84978 0,0 -1.44952,19.70769 -12.05015,36.00136 -4.32143,6.64224 -6.6613,9.72898 -7.76303,11.17846 l -0.85955,1.13086 v 0 l 0.45705,1.54048 2.90688,9.79762 c 0,0 58.98841,9.77356 80.6881,25.32209 21.69969,15.54852 20.107,118.76776 20.107,118.76776 l -43.64232,-1.07845 -4.81589,-48.95321 -2.11191,48.99191 -155.37199,0.0131 -1.77761,-45.59701 -5.00017,45.85962 z"
         id="path888"
         sodipodi:nodetypes="ccsccsssscssccccscccccccc"
         inkscape:export-filename="/home/igna/path888.png"
         inkscape:export-xdpi="96"
         inkscape:export-ydpi="96" />
      <g
         id="g17056"
         transform="matrix(2.5,0,0,2.5,-20.108291,-475.10589)"
         inkscape:export-filename="/home/igna/path888.png"
         inkscape:export-xdpi="96"
         inkscape:export-ydpi="96"
         style="display:none">
        <circle
           style="fill:#ff2a15;fill-opacity:1;stroke:none;stroke-width:0.42213;stroke-opacity:0"
           id="path4371"
           cx="247.0538"
           cy="440.05371"
           r="20" />
        <text
           xml:space="preserve"
           style="font-style:normal;font-weight:normal;font-size:40px;line-height:1.25;font-family:sans-serif;fill:#ffffff;fill-opacity:1;stroke:none"
           x="230.29599"
           y="452.59277"
           id="text6193"><tspan
             sodipodi:role="line"
             id="tspan6191"
             x="230.29599"
             y="452.59277">+</tspan></text>
      </g>
    </g>
  </g>
</svg>
