<svg width="15" height="15" viewBox="0 0 15 15" fill="none" xmlns="http://www.w3.org/2000/svg">
<g opacity="0.3" clip-path="url(#clip0_27_14)">
<path d="M9.99943 5.43141C9.99943 5.67965 9.79847 5.88061 9.55023 5.88061C9.30199 5.88061 9.10104 5.6793 9.10104 5.43141C9.10104 5.18352 9.30234 4.98222 9.55023 4.98222C9.79812 4.98222 9.99943 5.18352 9.99943 5.43141ZM9.44002 7.44548C9.44002 8.48607 8.59344 9.33265 7.55285 9.33265C6.51227 9.33265 5.66568 8.48607 5.66568 7.44548C5.66568 6.4049 6.51227 5.55831 7.55285 5.55831C8.59344 5.55831 9.44002 6.4049 9.44002 7.44548ZM8.76171 7.44548C8.76171 6.77899 8.21934 6.23662 7.55285 6.23662C6.88636 6.23662 6.34399 6.77899 6.34399 7.44548C6.34399 8.11197 6.88636 8.65434 7.55285 8.65434C8.21934 8.65434 8.76171 8.11197 8.76171 7.44548ZM11.3727 5.92963C11.3727 4.65854 10.3422 3.62769 9.07079 3.62769H5.92957C4.65813 3.62769 3.62762 4.65819 3.62762 5.92963V9.07085C3.62762 10.3419 4.65813 11.3728 5.92957 11.3728H9.07079C10.3422 11.3728 11.3727 10.3423 11.3727 9.07085V5.92963ZM10.6169 9.03609C10.6169 9.90909 9.90903 10.617 9.03602 10.617H5.96433C5.09098 10.617 4.38347 9.90909 4.38347 9.03609V5.96405C4.38347 5.09104 5.09133 4.38318 5.96433 4.38318H9.03602C9.90903 4.38318 10.6169 5.09104 10.6169 5.96405V9.03609Z" fill="white"/>
<path d="M7.5 0C3.36443 0 0 3.36443 0 7.5C0 11.6356 3.36443 15 7.5 15C11.6356 15 15 11.6356 15 7.5C15 3.36443 11.6356 0 7.5 0ZM7.5 14.0383C3.89498 14.0383 0.962011 11.1054 0.962011 7.5C0.962011 3.89463 3.89498 0.962011 7.5 0.962011C11.105 0.962011 14.0383 3.89498 14.0383 7.50035C14.0383 11.1057 11.1054 14.0387 7.5 14.0387V14.0383Z" fill="white"/>
</g>
<defs>
<clipPath id="clip0_27_14">
<rect width="15" height="15" fill="white"/>
</clipPath>
</defs>
</svg>
