<svg width="15" height="15" viewBox="0 0 15 15" fill="none" xmlns="http://www.w3.org/2000/svg">
<g opacity="0.3" clip-path="url(#clip0_27_11)">
<path fill-rule="evenodd" clip-rule="evenodd" d="M6.51399 7.52993V11.1993C6.51399 11.2521 6.55675 11.2949 6.6096 11.2949H7.97213C8.02497 11.2949 8.06774 11.2521 8.06774 11.1993V7.47013H9.05548C9.10519 7.47013 9.14657 7.43224 9.15074 7.38252L9.24565 6.25884C9.25052 6.20321 9.20637 6.15523 9.15039 6.15523H8.06739V5.35802C8.06739 5.17132 8.21898 5.01973 8.40568 5.01973H9.16708C9.21993 5.01973 9.26269 4.97697 9.26269 4.92412V3.80044C9.26269 3.7476 9.21993 3.70483 9.16708 3.70483H7.88069C7.12589 3.70483 6.51399 4.31674 6.51399 5.07188V6.15523H5.83255C5.7797 6.15523 5.73694 6.198 5.73694 6.25084V7.37452C5.73694 7.42737 5.7797 7.47013 5.83255 7.47013H6.51399V7.52993Z" fill="white"/>
<path d="M7.5 0C3.36443 0 0 3.36443 0 7.5C0 11.6356 3.36443 15 7.5 15C11.6356 15 15 11.6356 15 7.5C15 3.36443 11.6356 0 7.5 0ZM14.038 7.5C14.038 11.105 11.105 14.0383 7.5 14.0383C3.89498 14.0383 0.961663 11.1054 0.961663 7.5C0.961663 3.89463 3.89463 0.961663 7.5 0.961663C11.1054 0.961663 14.038 3.89463 14.038 7.5Z" fill="white"/>
</g>
<defs>
<clipPath id="clip0_27_11">
<rect width="15" height="15" fill="white"/>
</clipPath>
</defs>
</svg>
